<svg width="24" height="22" viewBox="0 0 24 22" fill="none" xmlns="http://www.w3.org/2000/svg">
<path d="M4.90298 21.0974L15.103 11.4974L19.903 16.2974M4.90298 21.0974H16.903C18.8912 21.0974 20.503 19.4857 20.503 17.4974V11.4974M4.90298 21.0974C2.91475 21.0974 1.30298 19.4857 1.30298 17.4974V5.49743C1.30298 3.50921 2.91475 1.89743 4.90298 1.89743H12.703M19.303 7.69154L19.303 4.29743M19.303 4.29743L19.303 0.90332M19.303 4.29743L15.9089 4.29743M19.303 4.29743L22.6971 4.29743M8.50298 7.29743C8.50298 8.29155 7.69709 9.09743 6.70298 9.09743C5.70887 9.09743 4.90298 8.29155 4.90298 7.29743C4.90298 6.30332 5.70887 5.49743 6.70298 5.49743C7.69709 5.49743 8.50298 6.30332 8.50298 7.29743Z" stroke="#0EC243" stroke-width="1.6" stroke-linecap="round" stroke-linejoin="round"/>
</svg>
