<?xml version="1.0" encoding="utf-8"?>
<!-- Generator: Adobe Illustrator 23.1.0, SVG Export Plug-In . SVG Version: 6.00 Build 0)  -->
<svg version="1.1" id="Слой_1" xmlns="http://www.w3.org/2000/svg" xmlns:xlink="http://www.w3.org/1999/xlink" x="0px" y="0px"
	 viewBox="0 0 114.15 113.89" style="enable-background:new 0 0 114.15 113.89;" xml:space="preserve">
<style type="text/css">
	.st0{fill:#FFFFFF;}
	.st1{fill:#208F44;}
</style>
<g>
	<path class="st0" d="M57.07,114.15c-15.24,0-29.58-5.94-40.36-16.72C5.94,86.65,0,72.32,0,57.07C0,41.83,5.94,27.5,16.72,16.72
		C27.5,5.94,41.83,0,57.07,0c15.25,0,29.58,5.94,40.36,16.72c10.78,10.78,16.72,25.11,16.72,40.36c0,15.25-5.94,29.58-16.72,40.36
		C86.65,108.21,72.32,114.15,57.07,114.15z"/>
	
		<ellipse transform="matrix(0.9078 -0.4193 0.4193 0.9078 -18.6724 29.1927)" class="st1" cx="57.07" cy="57.07" rx="53.08" ry="53.08"/>
	<g>
		<g>
			<g>
				<path class="st0" d="M23.54,55.05c0,10.05,4.78,19,12.19,24.71l3.37-3.37c-6.57-4.81-10.84-12.58-10.84-21.34
					s4.27-16.52,10.84-21.34l-3.37-3.37C28.32,36.05,23.54,45,23.54,55.05z"/>
			</g>
			<g>
				<path class="st0" d="M31.72,55.05c0,8.06,4,15.2,10.13,19.53l3.4-3.4c-5.29-3.42-8.81-9.37-8.81-16.13
					c0-6.76,3.51-12.71,8.81-16.13l-3.4-3.4C35.73,39.85,31.72,46.99,31.72,55.05z"/>
			</g>
			<g>
				<path class="st0" d="M40.3,55.05c0,5.7,3.13,10.68,7.76,13.33l3.52-3.52c-3.84-1.6-6.55-5.39-6.55-9.81s2.71-8.21,6.55-9.81
					l-3.52-3.52C43.43,44.37,40.3,49.35,40.3,55.05z"/>
			</g>
			<g>
				<path class="st0" d="M90.61,55.05c0,10.05-4.79,19-12.19,24.71l-3.37-3.37c6.57-4.81,10.84-12.58,10.84-21.34
					s-4.27-16.52-10.84-21.34l3.37-3.37C85.83,36.05,90.61,45,90.61,55.05z"/>
			</g>
			<g>
				<path class="st0" d="M82.43,55.05c0,8.06-4,15.2-10.13,19.53l-3.4-3.4c5.29-3.42,8.81-9.37,8.81-16.13
					c0-6.76-3.51-12.71-8.81-16.13l3.4-3.4C78.42,39.85,82.43,46.99,82.43,55.05z"/>
			</g>
			<g>
				<path class="st0" d="M73.85,55.05c0,5.7-3.13,10.68-7.76,13.33l-3.52-3.52c3.84-1.6,6.55-5.39,6.55-9.81s-2.71-8.21-6.55-9.81
					l3.52-3.52C70.72,44.37,73.85,49.35,73.85,55.05z"/>
			</g>
			<g>
				<path class="st0" d="M62.09,55.05c0-2.77-2.25-5.02-5.02-5.02c-2.77,0-5.02,2.25-5.02,5.02c0,2.47,1.78,4.52,4.13,4.94V83.8
					h1.77V59.99C60.31,59.57,62.09,57.52,62.09,55.05z"/>
			</g>
		</g>
	</g>
</g>
</svg>
