<?xml version="1.0" encoding="utf-8"?>
<!-- Generator: Adobe Illustrator 23.1.0, SVG Export Plug-In . SVG Version: 6.00 Build 0)  -->
<svg version="1.1" id="Слой_1" xmlns="http://www.w3.org/2000/svg" xmlns:xlink="http://www.w3.org/1999/xlink" x="0px" y="0px"
	 viewBox="0 0 90.06 74.73" style="enable-background:new 0 0 90.06 74.73;" xml:space="preserve">
<style type="text/css">
	.st0{fill:#91C648;}
	.st1{opacity:0.2;fill:#91C648;}
	.st2{opacity:0.5;fill:#91C648;}
	.st3{opacity:0.3;fill:#A6CF53;}
	.st4{opacity:0.3;fill:#C3DA61;}
	.st5{opacity:0.6;fill:#548E3F;}
	.st6{opacity:0.6;fill:#72A140;}
	.st7{opacity:0.2;fill:#548E3F;}
	.st8{opacity:0.1;fill:#A6CF53;}
	.st9{opacity:0.3;fill:#D1E071;}
	.st10{opacity:0.2;fill:#D1E071;}
	.st11{opacity:0.3;fill:#548E3F;}
	.st12{fill:#1C3219;}
	.st13{fill:#215429;}
	.st14{fill:#0E773C;}
	.st15{fill:#228F44;}
	.st16{opacity:0.1;fill:#215429;}
	.st17{opacity:0.5;fill:#3B9946;}
	.st18{opacity:0.5;fill:#57AC46;}
	.st19{opacity:0.3;fill:#57AC46;}
	.st20{opacity:0.2;fill:#215429;}
	.st21{opacity:0.4;fill:#215429;}
</style>
<g>
	<g>
		<g>
			<path class="st0" d="M76.18,37.53c3.38,16.12-6.61,31.95-22.33,35.37c-15.72,3.42-31.2-6.88-34.58-23
				c-3.38-16.12,6.62-31.95,22.33-35.37C57.32,11.11,72.8,21.41,76.18,37.53z"/>
			<path class="st1" d="M40.07,16.23c2.62-3.07,7.63,1.35,9.26,3.54c1.43,1.93,2.66,2.75,4.58,4.09c2.03,1.42,3.49,3.66,4.64,5.87
				c5.72,11.01-2.23,23.83-13.76,25.04c-5.31,0.56-9.11-4.35-12.3-7.95c-1.21-1.37-2.37-2.69-2.57-4.6
				c-0.12-1.18,0.12-2.73-0.45-3.84c-1.05-2.06-2.76-0.16-3.52,1.15c-1.66,2.88-2.18,5.57-1.73,8.95
				c1.19,8.75,6.21,15.08,13.48,19.49c5.58,3.39,13.5,4.85,19.69,2.61c1.58-0.58,3.01-1.56,4.42-2.47c1.89-1.22,3.48-1.91,5.16-3.49
				c2.41-2.27,4.39-5,6.28-7.75c1.71-2.48,2.12-5.65,2.22-8.63c0.1-2.89,0.48-5.66,0.03-8.53c-0.83-5.22-2.45-9.81-5.99-13.79
				c-3.04-3.41-7.24-6-11.01-8.36c-2.84-1.79-6.45-2.66-9.72-3.22c-2.38-0.4-6.08-0.4-7.98,1.19c-0.5,0.42-0.85,0.97-1.54,1.01
				L40.07,16.23z"/>
			<path class="st1" d="M23.39,28.56c-2.57,3.64-3.71,8.73-3.97,13.16c-0.22,3.73,0.9,7.69,1.96,11.25
				c2.48,8.36,8.98,13.69,16.47,16.93c3.49,1.51,7.36,2.17,11.15,2.01c2.11-0.08,3.88-0.5,5.88-1.14c0.99-0.32,2.1-0.62,3.03-1.07
				c0.46-0.22,0.84-0.66,1.34-0.8c0.44-0.12,0.93,0.16,1.34,0c0.76-0.3,1.87-1.27,2.64-1.75c1.28-0.8,2.4-1.81,3.39-2.95
				c1.77-2.07,3.47-4.35,4.7-6.82c2.53-5.11,3.08-12.05,2.59-17.74c-0.48-5.59-3.13-12.12-7.28-15.94c-1.87-1.72-4.1-2.65-6.09-4.12
				c-1.52-1.13-2.7-1.93-4.55-2.51c-3.23-1.02-7.03-1.64-10.38-1.9c-1.75-0.13-3.93-0.25-5.56,0.42c-1.12,0.47-5.03,2.19-5.41,3.39
				c-0.83,2.62,5.9,2.65,7.17,2.99c4.49,1.19,8.09,4.1,7.91,9.32c-0.17,5.18-2.08,10.48-7.38,11.86c-4.38,1.14-7.49-0.88-9.54-4.93
				c-1.43-2.83-2.39-5.06-2.02-8.27c0.16-1.41,0.63-3.28-0.89-3.8c-1.7-0.58-4.54,0.98-5.7,2.02c-0.73,0.66-1.29,2.29-1.96,2.6
				L23.39,28.56z"/>
			<path class="st1" d="M35.17,19.12c1.41-0.85,2.4-1.71,4.22-1.81c2.25-0.12,3.92,0.96,5.44,2.53c1.1,1.14,1.82,2.1,3.41,2.41
				c1.9,0.37,3,0.51,4.53,1.87c1.78,1.59,1.95,4.17,3.86,5.51c2.76,1.93,5.57,3.98,6.84,7.35c2.74,7.25-1.15,14.3-6.99,18.11
				c-1.02,0.66-2.46,1.94-3.67,1.64c-1.06-0.26-1.31-1.01-2.71-0.47c-1.81,0.7-3.33,2.29-5.1,3.14c-1.85,0.89-3.66,1.27-5.62,0.63
				c-3.32-1.09-6.36-2.98-8.51-5.84c-1.02-1.35-1.64-2.87-2.3-4.44c-0.44-1.05-1.12-3.43-2.2-3.94c-3.65-1.74-3,6.51-2.65,8.11
				c0.85,3.87,3.37,7.44,6.34,9.95c5.19,4.39,11.36,7.58,18.26,7.13c6-0.4,13-2.72,17.37-7.11c4.69-4.71,7.88-10.02,8.37-16.88
				c0.5-7.12-0.07-14.05-4.68-19.8c-3.49-4.36-7.78-7.96-12.85-10.14c-3.99-1.71-7.74-1.7-11.92-1.2c-1.76,0.21-3.26,1-4.88,1.62
				c-1.06,0.4-2.28,0.6-3.27,1.1L35.17,19.12z"/>
			<path class="st2" d="M66.03,28.5c-1.45,2.31,0.66,3.67,0.84,5.91c0.1,1.23-0.08,2,0.57,3.09c0.77,1.3,1.54,2.03,1.75,3.66
				c0.47,3.5,0.41,7.35-0.5,10.75c-1.11,4.16-3.35,7.13-5.69,10.59c2.65,0.61,5.86-2.03,7.34-4.06c1.88-2.59,3.38-5.47,4.03-8.66
				c0.85-4.16,0.94-9.4,0.03-13.54c-0.63-2.85-2.18-6.82-4.64-8.53c-2.01-1.39-3.36,0.11-3.99,1.36L66.03,28.5z"/>
			<path class="st3" d="M33.01,26.72c-1.36,1.63-1.06,5.2-0.75,7.17c0.45,2.85,2.17,4.71,4.99,5.12c4.76,0.69,9.65-3.65,8.77-8.76
				c-0.58-3.35-3.91-5.19-6.99-5.11c-1.27,0.03-2.63,0.41-3.82,0.84c-0.7,0.25-2.44,0.84-2.52,0.94L33.01,26.72z"/>
			<path class="st3" d="M36.29,17.31c-2.74,0.23-5.92,2.98-7.86,4.98c-2.98,3.06-5.77,7.19-7.42,11.19
				c-2.36,5.7-2.37,12.86-0.5,18.79c0.68,2.17,1.97,4.89,3.29,6.73c1.45,2.01,3.51,4.8,5.75,5.7c-1.01-1.78-2.57-3.22-3.64-5.02
				c-1.13-1.88-3.36-5.3-3-7.68c0.2-1.31,1.08-2.23,1.09-3.69c0.02-1.56-0.54-3.14-0.74-4.68c-0.45-3.63,0.5-7.09,1.85-10.38
				c1.59-3.86,3.26-6.15,6.81-8.24c2.42-1.43,6.17-2.12,8.96-2.34c2.49-0.2,5.65-0.27,7.75-1.81c4.2-3.07-2.11-5.5-4.75-5.62
				c-3.87-0.18-6.97,0.95-9.97,3.23c-0.07-0.19-0.13-0.41-0.15-0.61L36.29,17.31z"/>
			<path class="st3" d="M34.52,27.95c-1.33,0.29-1.42,2.82-1.35,3.9c0.16,2.38,1.09,4.25,3.58,4.55c3.73,0.46,7.94-3.12,6.39-7.18
				c-0.79-2.08-3.07-3.52-5.13-3.2c-1.05,0.17-4.48,1.62-4.13,3.11L34.52,27.95z"/>
			<path class="st4" d="M31.1,20c-2.1,0.98-4.34,3.72-5.84,5.54c-1.93,2.36-3.6,5.37-4.65,8.28c-0.95,2.65-1.45,5.65-1.44,8.49
				c0,1.58,0.25,3.1,0.58,4.67c0.31,1.45,0.48,5.3,1.63,6.13c0.22-5.35-0.16-10.57,0.83-15.87c0.36-1.9,0.98-3.43,1.98-5.01
				c1.04-1.64,1.32-3.56,2.69-4.96c1.23-1.26,2.78-2.21,4.18-3.25c0.85-0.64,2.56-1.54,2.57-2.77c0.02-1.85-2.71-1.56-3.11-0.49
				L31.1,20z"/>
			<path class="st4" d="M67.98,28.85c-2.06,0.58-0.17,3.62,0.53,4.45c1.72,2.06,2.4,4.78,3.07,7.34c0.79,3.01,1.02,5.78,0.63,8.85
				c-0.23,1.79-0.52,3.53-1.02,5.26c-0.28,0.96-0.87,2.13-0.74,3.13c1.55-0.87,2.15-3.56,2.65-5.21c0.71-2.3,1.09-4.45,1.08-6.86
				c0-3.5-0.32-6.75-1.04-10.18c-0.43-2.04-0.95-3.43-2.2-4.97c-0.42-0.52-2.62-2.92-3.04-1.55L67.98,28.85z"/>
			<path class="st4" d="M35.94,29.33c-1.51-0.5-1.64,3.15-1.03,3.99c1.41,1.94,4.37,0.08,5.22-1.49c1.96-3.64-3.68-5.34-4.56-2.45
				c-0.02-0.12-0.04-0.23-0.06-0.35L35.94,29.33z"/>
		</g>
		<path class="st5" d="M63.4,37.41c-0.64-0.12-1.07-0.58-1.74-0.57c-0.55,0-0.99,0.38-1.52,0.46c-1.24,0.2-1.77-0.67-3.02-0.64
			c-0.07,0-0.15,0.01-0.23,0.02c-1.06-0.1-2.13,0.04-3.24,0.35c-1.69,0.47-3.08,1.71-4.67,2.07c-0.02,0.09-0.01,0.14,0.01,0.18
			c-1.23,0.53-2.19,1.61-3.46,2.09c-1.46,0.56-2.53-0.41-3.97-0.41c-1.28-0.01-2.85,0.15-3.16,1.5c-0.24,1.03-0.07,2.24-0.28,3.3
			c-0.2,1.04-0.56,2.13,0.02,3.09c0.39,0.63,1.27,1.19,1.73,1.82c0.67,0.91,1.09,1.61,2.1,2.14c1.88,0.99,3.72,0.96,5.73,1.31
			c1.58,0.28,2.89,1.03,4.09,2.09c1.76,1.56,2.21,2.76,2.69,5.03c0.16,0.75,0.48,1.63,0.41,2.38c-0.07,0.79-0.59,1.51-0.65,2.32
			c-0.04,0.49-0.07,1.44,0.34,1.78c0.88,0.71,0.88-0.21,1.38-0.7c1.51-1.48,3.4-1.29,4.58-3.23c0.95-1.56,1.23-3.46,2.03-5.08
			c1.04-2.09,2.05-3.45,2.35-5.93c0.15-1.22,0.33-2.48,0.38-3.74c0.68-2.05,0.8-4.36,0.19-6.38c-0.23-0.77-0.58-1.05-0.41-1.92
			c0.14-0.73,1-1.26,1.09-1.88C66.5,36.76,64.35,37.58,63.4,37.41z"/>
		<path class="st5" d="M27.65,23.22c-0.61,0.04-0.75,1.42-0.57,2.08c0.28,1.01,1.22,0.95,1.53,1.9c0.35,1.07-0.53,1.5-1,2.26
			c-0.84,1.37-0.46,1.13,0.42,1.98c1.8,1.74,0.34,2.31-1.45,2.93c-0.93,0.32-1.28,0.29-1.77,1.42c-0.27,0.61-0.71,2.06-0.58,2.75
			c0.12,0.66,0.86,0.94,0.92,1.32c0.11,0.77-0.92,1.41-1.36,1.89c-0.35,0.37-1.1,0.85-1.35,1.17c-0.41,0.53-0.27,1.02-0.72,1.59
			c-0.99,1.24-2.21,0.48-2.63-0.73c-0.43-1.23-0.06-2.58,0.17-3.8c1.14-5.99,3.6-13.52,8.3-17.37c-0.07-0.13-0.17-0.19-0.32-0.2
			L27.65,23.22z"/>
		<path class="st5" d="M68.38,23.55c-3.46-4.27-8.68-7.68-14.16-7.83c-0.45-0.01-0.86-0.06-1.27-0.05
			c-0.56-0.42-1.72-0.57-2.15-0.61c-1.5-0.12-2.87-0.2-4.34,0.04c-1.44,0.23-2.2,1.33-3.53,1.68l0.3-0.07
			c-1.39,0.46-1.97,3.02-2.56,4.2c-0.48,0.96-0.93,3.66,1.05,2.6c0.53-0.28,0.8-1.03,1.3-1.4c0.59-0.43,1.02-0.19,1.48-0.38
			c0.39-0.17,0.87-0.89,1.28-0.91c0.5-0.02,0.77,0.74,1.3,0.8c1.74,0.2,0.77-1.44,0.77-2.25c0-1.08,0.79-1.56,1.66-1.89
			c-0.13,0.21-0.24,0.44-0.3,0.66c-0.34,1.26,0.54,1.77,0.74,2.82c0.06,0.3-0.02,1.76-0.07,2.09c-0.14,0.91-0.59,0.88-0.93,1.62
			c-0.37,0.81,0.04,1.41-0.76,2.12c-0.69,0.61-1.68,0.58-2.41,1.2c-1.99,1.71-0.64,4.26,0.74,5.91c1.14,1.37,1.59,1.96,3.31,1.48
			c1.58-0.44,3.22-0.04,4.55-0.99c0.71-0.5,1-1.47,1.7-1.91c0.65-0.41,1.54-0.05,2.25-0.15c1.94-0.28,2.42-2.5,4.51-1.31
			c0.91,0.52,3.23,2.57,4.34,1.76c1.24-0.91-0.62-2.99,0.03-4.01c0.6-0.94,2.36-0.56,2.82-1.32C70.75,26.31,68.99,24.3,68.38,23.55z
			"/>
		<path class="st6" d="M27.08,23.47c-1.32,0.18-2.79,3.06-3.64,4.14c-1.32,1.67-2.2,3.45-2.94,5.46c-0.7,1.9-0.81,3.87-1.1,5.79
			c-0.21,1.38-0.72,4.24,0.44,5.34c0.21-1.25-0.1-2.58,0.13-3.85c0.21-1.16,0.97-1.84,1.25-2.99c0.25-1.03,0.01-2.13,0.37-3.13
			c0.35-0.97,0.9-1.71,1.18-2.72c0.51-1.82,1.67-2.79,2.61-4.31c0.73-1.2,0.89-2.57,1.61-3.68c0.08,0.28-0.1,0.14-0.2,0.26
			L27.08,23.47z"/>
		<path class="st7" d="M42.4,17.8c-0.63,0.57-0.47,1.31-0.8,2c-0.31,0.65-0.83,0.92-1.1,1.63c-0.15,0.4-0.27,1.72,0.05,2
			c0.65,0.57,1.02-0.19,1.45-0.58c0.52-0.47,0.62-0.58,1.19-0.84c0.67-0.31,1.07-0.4,1.67-0.85c0.72-0.54,0.48-0.67,1.31-0.45
			c0.67,0.18,0.72,0.87,1.57,0.58c0.31-2.03,0.13-2.66,1.8-3.99c0.08,1.91,1.05,4.07,0.49,5.85c-0.52,1.65-1.34,3.1-2.65,4.08
			c-1.78,1.33-2.82,1.8-1.7,4.4c0.62,1.43,2.09,3.65,3.73,3.47c1.39-0.15,3.95-0.47,4.88-1.32c0.75-0.7,0.78-1.35,1.9-1.55
			c0.81-0.15,1.53,0.19,2.35-0.25c1.26-0.67,2.88-2.09,4.22-1.22c0.6,0.39,0.96,0.93,1.67,1.3c0.87,0.44,1.69,0.61,2.6,0.59
			c-0.24-1.05-0.63-3.21,0.04-4.08c0.51-0.67,1.37-0.29,1.72-1.06c0.33-0.71-0.33-1.85-0.63-2.45c-0.63,1.27-1.31,2.01-2.47,3.02
			c-0.41,0.36-0.74,0.85-1.31,0.93c-1.03,0.15-0.65-0.52-1.49-0.98c-1.37-0.76-2.14,0.84-3.44,0.73c-0.64-0.05-1.05-0.61-1.89-0.51
			c-0.92,0.11-1.16,0.49-1.75,1.16c-1.12,1.28-2.27,2.36-4.06,2.45c-1.98,0.1-4.27-1.83-2.21-3.42c0.98-0.76,1.11-0.64,1.55-1.86
			c0.4-1.11,0.83-1.18,1.46-2.03c0.86-1.18,0.13-3,0.24-4.38c0.06-0.78,0.12-1.21-0.03-2.02c0.17-0.03,0.38-0.14,0.55-0.16
			c-0.05-1.07-2.02-1.18-2.76-1.35c-1.29-0.3-2.34-0.27-3.35,0.75c-0.76,0.77-1.41,1.7-2.71,1.37c-0.49-0.12-1.91-1.72-2.1-0.45
			L42.4,17.8z"/>
		<path class="st8" d="M48.24,41.45c-1.48,0.25-2.67,3.38-2.25,4.77c0.61,2.07,2.61,2.07,3.94,3.26c1.73,1.55,1.74,3.46,4.51,3.47
			c2.68,0.01,4.41-2.16,5.5-4.47c1.67-3.55,1.12-8.06-3.18-8.89c-2.69-0.51-5.55,0.3-8.01,1.33c-0.58,0.24-1.05,0.39-1.3,0.96
			L48.24,41.45z"/>
		<path class="st8" d="M52.77,17.75c0.6,0.68,0.73,1.17,1.05,2.01c0.38,1.01,0.63,1.19,1.27,1.9c0.32,0.36,0.81,0.32,0.75,1.13
			c-0.07,0.81-0.69,0.71-1,1.25c-0.3,0.53-0.02,1.06-0.21,1.48c-0.28,0.62-0.98,0.69-1.22,1.43c-0.11,0.35-0.14,1.51,0.25,1.67
			c0.64,0.27,0.84-0.9,1.11-1.32c0.37-0.58,1.03-0.81,1.36-1.3c0.34-0.5,0.2-1.13,0.68-1.49c0.78-0.59,2.76-0.41,3.48-0.13
			c0.75,0.29,0.97,0.52,1.75,0.56c0.89,0.04,1.24-0.22,2.13,0.19c1.18,0.53,3.75,1.74,3.37-0.77c-0.42-2.82-5.94-5.22-8.28-6.09
			c-1.68-0.63-5.23-1.3-6.7-0.35L52.77,17.75z"/>
		<path class="st9" d="M35.93,30.5c-0.79-0.14-0.26,1.57,0.36,1.88c1,0.51,2.43-0.33,2.52-1.44c0.19-2.13-2.73-1.13-3.26,0.16
			L35.93,30.5z"/>
		<path class="st9" d="M69.34,28.16c-1.53,0.43-2.03,1.9-1.05,3.21c0.38,0.51,1,0.78,1.4,1.28c0.56,0.71,0.82,1.64,1.11,2.48
			c1.37,4.03,1.9,8.2,1.53,12.46c-0.51,5.85-2.52,11.87-6.21,16.34c-0.37,0.45-0.8,0.92-1.11,1.36c1.91,0.01,3.41-2.94,4.34-4.32
			c1.17-1.75,2.44-3.46,3.42-5.35c1.92-3.69,2.52-8.25,2.46-12.38c-0.04-3.35-0.64-7.09-1.89-10.21c-0.43-1.06-2.79-6.06-4.26-4.94
			L69.34,28.16z"/>
		<path class="st10" d="M22.46,30.7c-1.35,1.35-2.14,4.9-2.45,6.79c-0.4,2.41-0.43,4.64-0.15,7.01c0.83,6.95,3.23,13.07,7.59,18.43
			c1.8,2.22,3.54,3.49,5.96,4.92c-3.95-2.5-6.9-7.36-8.81-11.63c-1.54-3.44-4.11-8.99-2.54-12.69c0.39-0.92,0.59-1.07,0.56-2.1
			c-0.02-0.72-0.43-1.56-0.36-2.26c0.17-1.58,1.71-2.91,1.99-4.58c0.26-1.52-0.52-4.91-2.1-3.57L22.46,30.7z"/>
	</g>
	<path class="st11" d="M20.3,52.23c-1.21,3.11,10.28,2.83,12.17,2.15c-0.02-3.3-4.84-8.2-6.71-10.75c-1.68-2.3-3.63-6.2-6.15-7.38
		c-1.11,1.77,0.68,7.13,0.71,9.53c0.03,2.05,0.49,5.52-0.15,6.93L20.3,52.23z"/>
	<g>
		<g>
			<path class="st12" d="M27.96,65.84c-2.16-2.22-4.27-4.78-5.44-7.72c-2.73-0.65-6.06-1.98-5.88-5.17
				c-0.36,0.43-0.79,0.84-1.07,1.24c-0.99,1.42-1.91,2.97-2.59,4.61c-1.23,2.97-2.55,7.7,0.26,9.87c1.64,1.26,6.58,2.42,8.53,2.48
				c5.16,0.16,9.12-0.43,11.16-1.29C31.04,68.85,29.32,67.24,27.96,65.84z"/>
			<path class="st13" d="M27.96,65.84c-2.29-2.36-4.53-5.09-5.64-8.26c-2.79-0.61-6.55-1.9-6.35-5.28
				c-0.36,0.43-0.79,0.84-1.07,1.24c-0.99,1.42-1.91,2.97-2.59,4.61c-1.23,2.97-2.55,7.7,0.26,9.87c1.64,1.26,6.58,2.41,8.53,2.48
				c4.95,0.15,8.8-0.39,10.91-1.19C30.48,68.32,29.1,67.01,27.96,65.84z"/>
			<path class="st14" d="M1.44,45.91c1.59-2.97,11.26-13.18,13.67-15.37c1.35-1.23,1.97-0.73,2.77,0.88
				c1.11,2.23,7.92,15.85,8.48,17.2c0.41,0.97,0.92,2.16,0.14,2.91c-0.67,0.65-2.43,0.54-3.26,0.59c-4.33,0.22-9.13-0.96-13.31-2.09
				c-2.19-0.6-4.35-1.03-6.51-1.76c-0.9-0.3-3.83-1.51-1.86-2.63L1.44,45.91z"/>
			<path class="st14" d="M5.93,47.32c-2.63,3.77-1.97,9.57-0.29,13.57c1.48,3.51,8.25,9.68,12.62,9.62
				c-3.88-0.96-4.49-9.08-3.27-12.09c1.25-3.11,2.88-6.12,5.29-8.28c-2.95,0.05-5.42-0.78-8.24-1.59c-1.98-0.56-4.66-0.47-6.24-0.95
				L5.93,47.32z"/>
			<path class="st15" d="M1.01,45.97c1.53-2.96,10.9-13.14,13.23-15.32c1.31-1.23,1.91-0.73,2.68,0.88
				c1.08,2.22,7.66,15.8,8.21,17.14c0.4,0.97,0.89,2.15,0.14,2.9c-0.65,0.65-2.35,0.54-3.16,0.58c-4.19,0.22-8.84-0.95-12.87-2.08
				c-2.12-0.59-4.2-1.03-6.3-1.75c-0.87-0.3-3.71-1.5-1.8-2.62L1.01,45.97z"/>
			<path class="st15" d="M5.36,47.37c-2.55,3.76-1.91,9.53-0.28,13.52c1.43,3.5,7.98,9.65,12.22,9.59
				c-3.75-0.96-4.35-9.05-3.17-12.05c1.21-3.1,2.79-6.1,5.11-8.26c-2.86,0.05-5.25-0.78-7.97-1.58c-1.91-0.56-4.51-0.47-6.03-0.95
				L5.36,47.37z"/>
		</g>
		<path class="st16" d="M16.59,55.06c-0.39,0.93-1.12,1.67-1.47,2.62c-0.47,1.31-0.74,2.69-0.8,4.08c-0.05,1.2,0.03,2.45,0.37,3.62
			c0.37,1.29,0.75,2.7,1.71,3.66c1.08,1.09,2.97,1.67,4.42,1.87c1.22,0.17,2.52,0.28,3.74,0.25c0.77-0.02,1.49-0.1,2.25-0.27
			c0.36-0.08,1.27-0.15,1.41-0.54c-1.22-0.51-2.48-0.82-3.74-1.23c-0.77-0.25-1.15-0.48-1.41-1.28c-0.22-0.68-0.36-1.33-0.82-1.9
			c-0.69-0.84-1.82-0.84-2.58-1.56c-0.95-0.89-0.34-2.42-0.59-3.6c-0.18-0.88-0.89-1.27-1.29-2c-0.28-0.52-0.22-1.13-0.28-1.71
			c-0.09-0.77-0.35-1.46-0.73-2.1c-0.04,0.07-0.07,0.16-0.09,0.24L16.59,55.06z"/>
		<path class="st16" d="M27.96,65.84c-1.15-1.19-2.29-2.47-3.29-3.86c-0.35-0.04-0.71-0.06-1.09-0.02c-1.1,0.11-2.11,0.22-3.11-0.39
			c-1.16-0.7-2.48-2.28-3-3.59c-0.29-0.72-0.65-2.09-0.48-2.88c-0.02,0.12-0.1,0.17-0.14,0.27l-0.19-0.57
			c-0.14,0.55-0.64,1.05-0.87,1.57c-0.24,0.56-0.53,1.13-0.71,1.72c-0.39,1.31-0.6,2.92-0.49,4.3c0.08,1.01,0.27,2.03,0.58,2.99
			c0.23,0.72,0.36,1.53,0.63,2.24c0.53,1.38,1.95,2.04,3.21,2.51c1.87,0.69,4.25,0.73,6.21,0.61c1.84-0.11,3.65-0.4,5.44-0.76
			c0.46-0.09,1.07-0.25,1.6-0.51C30.64,68.47,29.16,67.08,27.96,65.84z"/>
		<path class="st17" d="M1.61,46.23c0.38,1.01,3.71,0.34,4.58,0.42c0.78,0.08,1.55,0.33,2.32,0.47c0.99,0.18,1.95,0.32,2.92,0.63
			c1.72,0.56,3.89,1.66,5.55,0.35c1.62-1.28,0.28-3.25-0.21-4.76c-0.67-2.07-0.05-4.33-0.06-6.46c-0.01-1.2-0.03-2.46-0.4-3.61
			c-0.81-2.48-2.93,0.1-3.91,1.06c-0.68,0.66-1.42,1.24-2.09,1.91C9.57,36.99,9,37.88,8.25,38.6c-1.3,1.25-2.49,2.63-3.72,3.92
			c-0.74,0.78-1.54,1.51-2.25,2.31c-0.19,0.21-1.2,1.61-0.39,1.5L1.61,46.23z"/>
		<path class="st17" d="M1.1,46.7c0.72,0.74,2.28,1.39,3.32,1.24c-2.87-1.1,2.12-3.99,2.85-4.67c1.3-1.22,2.32-2.62,3.44-4.01
			c0.5-0.62,0.93-1.27,1.4-1.91c0.2-0.28,0.48-0.73,0.82-0.75c0.02,0.75,0.34,4.55,1.66,3.65c0.48-0.33,0.69-1.42,0.84-1.96
			c0.25-0.88,0.51-1.77,0.75-2.66c0.21-0.79,0.56-2.67-0.5-2.9c-0.85-0.19-2.02,0.6-2.69,1.08c-2.26,1.61-4.06,3.56-6.05,5.52
			c-0.72,0.7-1.51,1.32-2.12,2.14c-0.56,0.76-1.02,1.55-1.69,2.22c-0.3,0.3-2.47,2.83-1.98,3.04L1.1,46.7z"/>
		<path class="st17" d="M13.96,33.2c1.23-0.81,2.06,1.39,2.54,2.2c1,1.69,1.81,3.48,2.54,5.32c0.6,1.51,1.18,3.02,1.75,4.53
			c0.4,1.07,0.79,2.2,0.34,3.31c-0.19,0.48-0.39,0.71-0.8,0.99c-0.21,0.14-0.83,0.36-0.84,0.69c-0.04,0.95,2.21,0.82,2.7,0.77
			c0.7-0.06,2.38,0.21,2.73-0.55c0.26-0.57-0.12-1.12-0.33-1.63c-0.33-0.81-0.69-1.6-1.01-2.41c-0.92-2.35-2.11-4.61-3.19-6.88
			c-0.91-1.94-2.1-3.72-2.99-5.65c-0.34-0.73-0.94-2.43-1.87-2.5c-1.07-0.08-1.39,1.4-2.01,2.03L13.96,33.2z"/>
		<path class="st18" d="M20.15,50.82c0.1,0.44,2.26,0.24,2.76,0.23c0.71-0.02,1.47,0.12,1.87-0.57c0.52-0.89-0.26-1.78-0.63-2.6
			c-0.61-1.32-1.27-2.62-1.84-3.96c-1.09-2.57-2.23-5.15-3.65-7.55c-0.45-0.77-0.91-1.56-1.36-2.34c-0.34-0.58-0.66-1.43-1.27-1.73
			c-0.26-0.13-0.41-0.26-0.6,0.1c-0.19,0.37,0.1,0.35,0.37,0.6c0.92,0.85,1.49,2.18,2.1,3.27c1.42,2.53,2.56,5.2,3.69,7.89
			c0.56,1.34,1.69,3.49,0.87,4.92c-0.27,0.47-1.66,1.98-2.16,1.41L20.15,50.82z"/>
		<path class="st18" d="M1.73,46.21c-0.05,0.38,0.47,0.48,0.75,0.44c0.65-0.09,0.67-0.77,1.02-1.25c0.34-0.45,0.82-0.78,1.22-1.15
			c0.54-0.49,1.02-1.07,1.54-1.58c1.05-1.02,1.91-2.18,2.89-3.26c0.57-0.62,1.02-1.26,1.5-1.95c0.34-0.49,0.9-1.1,1.01-1.71
			c-0.8-0.29-2.62,1.97-3.11,2.54c-1.01,1.19-2.13,2.25-3.18,3.38c-0.86,0.92-1.61,1.93-2.51,2.81c-0.54,0.53-0.87,1.22-1.22,1.81
			L1.73,46.21z"/>
		<path class="st19" d="M7.61,45.83c0.89,0.67,2.4,0.82,3.44,1.05c1.16,0.25,3.1,0.87,3.86-0.46c0.8-1.4-0.59-2.75-0.94-4.08
			c-0.26-0.97-0.57-1.89-1.55-2.22c-1.82-0.61-3.24,1.84-4.1,3.15c-0.23,0.35-1.53,2.73-0.49,2.86c0.03-0.12-0.05-0.07-0.11-0.14
			L7.61,45.83z"/>
		<path class="st17" d="M4.86,49.02c-1.22,3.82-1.05,8.82,0.82,12.42c1.03,1.99,2.88,3.61,4.51,5.04c0.37,0.32,2.3,2.04,2.76,1.53
			c0.33-0.37-0.64-1.29-0.81-1.53c-0.84-1.17-1.34-2.46-1.68-3.88c-0.32-1.32-0.08-2.55-0.28-3.86c-0.2-1.34,0.24-2.26,0.78-3.43
			c0.81-1.74,1.81-4.4-0.19-5.77c-1.09-0.74-2.52-0.8-3.76-0.72c-0.39,0.02-0.77,0.14-1.16,0.18c-0.32,0.03-0.65-0.07-0.95,0.03
			L4.86,49.02z"/>
		<path class="st17" d="M4.81,49.5c-0.37,1.28-0.74,2.54-0.83,3.89c-0.13,1.95,0.16,3.73,0.72,5.6c0.47,1.59,1.48,3.23,2.55,4.47
			c0.62,0.72,1.37,1.33,2.1,1.91c0.67,0.53,1.24,1.18,2.07,1.41c-0.24-0.92-1.01-1.82-1.43-2.69c-0.77-1.58-1.37-3.16-1.84-4.86
			c-0.63-2.3,0-4.55,0.04-6.88c0.02-1.37-0.21-2.58-1.52-3.09c-0.4-0.16-2.22-0.3-2.16,0.42L4.81,49.5z"/>
		<path class="st18" d="M9.29,45c0.61,1.08,2.57,1.44,3.46,0.67c1.16-1.02,0.79-2.98-0.4-3.8c-0.86-0.59-1.83,0.07-2.32,0.87
			c-0.52,0.84-0.32,1.52-0.08,2.17L9.29,45z"/>
		<path class="st18" d="M4.9,49.04c-0.61,0.1-0.86,2.98-0.9,3.6c-0.13,1.67-0.06,3.7,0.35,5.32c0.45,1.78,1.38,3.35,2.38,4.82
			c0.87,1.29,2.2,3.18,3.72,3.57c0.07-0.34-0.36-0.8-0.54-1.08c-0.5-0.76-0.99-1.53-1.41-2.35c-0.68-1.3-1.39-2.6-1.61-4.08
			c-0.3-2.01-0.32-3.88,0.05-5.86c0.18-0.98,0.56-2.79-0.29-3.55c-0.54-0.5-1.54-0.71-1.86,0.11L4.9,49.04z"/>
		<path class="st18" d="M4.69,49.85c-0.65,0.29-0.57,2.61-0.63,3.32c-0.1,1.2,0.06,2.43,0.18,3.62c0.28,2.62,1.24,5.3,3.25,7.01
			c0.29-0.32-0.58-2.09-0.72-2.53c-0.34-1.09-0.54-2.16-0.64-3.3C5.99,56.37,5.85,54.59,6,53c0.09-1.01,0.41-1.94-0.14-2.88
			c-0.25-0.42-1.53-0.86-1.23-0.08L4.69,49.85z"/>
		<path class="st20" d="M30.95,68.56c-0.38-0.01-0.76-0.05-1.12-0.11c-2.05-0.34-4.18-1.42-5.91-2.63c-0.97-0.68-1.97-1.48-2.84-2.3
			c-1.14-1.09-1.66-2.25-2.19-3.75c-0.63-1.79-2.46-2.46-1.82-4.6c0,0,0-0.01,0-0.02c0-0.01,0-0.02,0.01-0.03l-0.01,0.02
			c0.01-0.04,0-0.07-0.03-0.12c-0.92,1.26-1.95,2.51-2.26,4.2c-0.34,1.86-0.26,3.77,0.01,5.69c0.19,1.37,0.56,2.94,1.61,3.86
			c1.1,0.96,2.71,1.31,4.11,1.4c1.89,0.13,3.77,0.36,5.67,0.54c1.89,0.18,4.08-0.37,5.85-1.39C31.66,69.09,31.3,68.83,30.95,68.56z
			 M17.05,55.22l-0.03,0.11C17.02,55.28,17.03,55.24,17.05,55.22z"/>
		<path class="st21" d="M21.88,70.63c-0.63-0.57-1.55-0.62-2.1-1.31c-0.24-0.3-0.3-0.61-0.61-0.86c-0.34-0.27-0.78-0.39-1.14-0.64
			c-1.41-0.96-1.92-2.65-2.33-4.27c-0.4-1.57-0.42-3.26-0.18-4.85c0.09-0.62,0.25-1.25,0.44-1.85c0.17-0.53,0.51-1.01,0.63-1.53
			c-1.2,2.42-2.16,4.64-2.02,7.44c0.13,2.54,0.64,5.73,3.04,7.02c1.43,0.77,2.9,0.62,4.35,1.04c-0.03,0.09-0.09,0.13-0.18,0.13
			L21.88,70.63z"/>
	</g>
	<path class="st11" d="M43.41,15.45c-0.32,3.48-8.03,4.38-6.55,9.02c0.9,2.81,5.63,4.63,7.89,5.83c3.77,1.99,7.75,3.11,11.67,4.65
		c2.26,0.89,6.16,3.19,8.48,1.61c2.32-1.58,1.65-5.49,1.23-7.92c-0.78-4.5-2.01-9.2-6.31-11.05c-2.86-1.23-6.65-1.86-9.74-2.03
		c-2.61-0.14-5.24,0.83-7.8,0.58c0.21,0.08,0.4,0.1,0.62,0.11L43.41,15.45z"/>
	<g>
		<g>
			<path class="st12" d="M45.48,16.32l-0.17-1.18c-0.03-0.04-0.06-0.08-0.09-0.11C45.23,15.51,45.29,15.97,45.48,16.32z"/>
			<path class="st12" d="M44.02,8.13c-1.06-3.06-3.22-7.48-6.68-7.09c-2.03,0.23-6.37,2.87-7.82,4.2
				c-5.07,4.64-7.78,8.78-7.66,10.42c1.57,1.5,4.16,4.31,6.34,6.6c0.33-0.26,0.67-0.5,1.02-0.74c0.52-0.48,1.05-0.91,1.61-1.31
				c1.19-1.12,2.56-2.05,3.99-2.79c0.49-0.5,1.01-0.94,1.55-1.3c2.38-1.59,6.55-4.02,8.86-1.1c-0.02-0.57,0.02-1.18-0.04-1.67
				C44.96,11.62,44.61,9.82,44.02,8.13z"/>
			<path class="st13" d="M46.4,16.33l-0.17-1.18c-0.03-0.04-0.06-0.08-0.09-0.12C46.15,15.51,46.21,15.97,46.4,16.33z"/>
			<path class="st13" d="M44.94,8.13c-1.06-3.05-3.22-7.48-6.69-7.09c-2.02,0.23-6.37,2.87-7.82,4.2
				c-5.07,4.64-7.78,8.78-7.66,10.42c1.48,1.42,3.86,3.98,5.96,6.19c0.16-0.11,0.32-0.23,0.48-0.34c0.52-0.48,1.05-0.91,1.61-1.31
				c1.62-1.52,3.56-2.7,5.54-3.51c0.08-0.03,0.17-0.06,0.25-0.08c0.22-0.18,0.44-0.35,0.66-0.5c2.38-1.59,6.55-4.02,8.86-1.1
				c-0.02-0.57,0.02-1.18-0.04-1.67C45.88,11.62,45.53,9.83,44.94,8.13z"/>
			<path class="st14" d="M60.88,9.47c0.8,3.31,0.5,17.66,0.19,20.98c-0.17,1.86-0.95,1.93-2.59,1.31
				c-2.27-0.86-16.18-6.09-17.48-6.68c-0.94-0.43-2.09-0.94-2.02-2.04c0.06-0.95,1.4-2.11,1.98-2.73c3-3.22,7.26-5.75,11.04-7.86
				c1.99-1.11,3.83-2.31,5.88-3.3c0.85-0.41,3.77-1.6,3.08,0.62L60.88,9.47z"/>
			<path class="st14" d="M56.69,11.61c-0.57-4.63-4.86-8.44-8.72-10.2c-3.38-1.55-12.36-1.31-15.5,1.83
				c3.45-2.03,9.24,3.52,10.34,6.6c1.13,3.18,1.93,6.54,1.61,9.84c2.11-2.12,4.45-3.25,7.03-4.65c1.81-0.98,3.69-2.95,5.16-3.7
				L56.69,11.61z"/>
			<path class="st15" d="M61.16,9.13c0.84,3.26,0.74,17.38,0.48,20.63c-0.14,1.83-0.9,1.88-2.52,1.25
				c-2.24-0.88-15.97-6.23-17.24-6.83c-0.92-0.43-2.06-0.96-2.01-2.04c0.04-0.93,1.35-2.06,1.91-2.66c2.9-3.12,7.04-5.54,10.72-7.56
				c1.93-1.06,3.73-2.21,5.73-3.16c0.83-0.39,3.68-1.51,3.03,0.66L61.16,9.13z"/>
			<path class="st15" d="M57.07,11.17C56.45,6.6,52.19,2.79,48.38,1c-3.34-1.57-12.15-1.47-15.19,1.56
				c3.36-1.94,9.11,3.6,10.24,6.64c1.16,3.14,1.99,6.46,1.72,9.69c2.04-2.05,4.32-3.13,6.83-4.47c1.76-0.94,3.59-2.84,5.01-3.56
				L57.07,11.17z"/>
		</g>
		<path class="st12" d="M28.59,21.96c-0.36-0.32-0.74-0.61-1.16-0.83c0.28,0.37,0.57,0.71,0.86,1.05
			C28.39,22.11,28.49,22.03,28.59,21.96z"/>
		<path class="st16" d="M43.86,13.44c-0.33-0.96-0.28-2.03-0.66-2.97c-0.52-1.3-1.24-2.5-2.11-3.57c-0.75-0.93-1.64-1.78-2.65-2.41
			C37.32,3.8,36.12,3.03,34.79,3c-1.51-0.04-3.25,0.87-4.44,1.74c-1,0.73-2.01,1.57-2.89,2.46c-0.55,0.56-1.02,1.13-1.45,1.79
			c-0.21,0.32-0.82,1.01-0.67,1.39c1.22-0.48,2.34-1.15,3.52-1.73c0.72-0.36,1.15-0.46,1.86-0.05c0.61,0.35,1.14,0.73,1.85,0.82
			c1.05,0.14,1.87-0.66,2.91-0.67c1.28-0.01,1.84,1.54,2.8,2.24c0.71,0.52,1.49,0.3,2.25,0.57c0.55,0.19,0.91,0.68,1.33,1.06
			c0.57,0.51,1.22,0.83,1.92,1.03c-0.02-0.08-0.05-0.16-0.09-0.24L43.86,13.44z"/>
		<path class="st16" d="M43.97,13.68c-0.26-0.5-0.22-1.23-0.4-1.78c-0.19-0.59-0.36-1.2-0.62-1.77c-0.57-1.24-1.49-2.58-2.47-3.51
			c-0.72-0.69-1.53-1.31-2.38-1.79c-0.64-0.37-1.27-0.87-1.93-1.2c-1.3-0.64-2.76-0.13-3.99,0.42c-1.81,0.81-3.56,2.47-4.91,3.94
			c-1.26,1.38-2.39,2.87-3.46,4.4c-0.54,0.78-1.32,2.11-0.95,3.12c0.3,0.82,1.19,1.8,1.77,2.41c0.38,0.39,0.91,0.46,1.22,0.9
			c0.15,0.2,0.24,0.92,0.52,0.94c0.44,0.03,1.66-2.05,1.91-2.34c0.89-1.02,1.74-1.64,2.94-2.18c1.14-0.51,2.19-0.96,3.03-1.95
			c0.73-0.85,1.38-1.65,2.52-1.91c1.3-0.3,3.3-0.08,4.54,0.52c0.68,0.33,1.85,1.08,2.24,1.78c-0.06-0.1-0.04-0.19-0.08-0.29
			L43.97,13.68z"/>
		<path class="st17" d="M60.55,9.37c-0.94-0.48-2.92,2.37-3.6,2.92c-0.61,0.49-1.34,0.86-1.99,1.3c-0.84,0.56-1.62,1.15-2.53,1.6
			c-1.62,0.8-3.91,1.53-4.26,3.66c-0.34,2.09,1.94,2.59,3.29,3.36c1.85,1.05,2.89,3.16,4.3,4.71c0.8,0.88,1.64,1.8,2.67,2.37
			c2.22,1.26,2.07-2.14,2.14-3.54c0.05-0.97,0.22-1.92,0.26-2.89c0.05-1.07-0.12-2.12-0.06-3.18c0.12-1.84,0.08-3.69,0.12-5.52
			c0.02-1.09,0.13-2.2,0.11-3.28c-0.01-0.29-0.19-2.04-0.71-1.39L60.55,9.37z"/>
		<path class="st17" d="M60.62,8.65c-1.01-0.04-2.57,0.59-3.22,1.44c2.81-1.22,1.08,4.44,1.01,5.45c-0.14,1.82,0.04,3.57,0.14,5.39
			c0.04,0.81,0.16,1.59,0.24,2.4c0.03,0.35,0.13,0.88-0.1,1.13c-0.51-0.53-3.24-3.12-3.6-1.52c-0.13,0.58,0.44,1.53,0.68,2.03
			c0.4,0.83,0.79,1.67,1.21,2.49c0.37,0.73,1.35,2.36,2.27,1.78c0.74-0.46,1.07-1.86,1.24-2.69c0.58-2.78,0.6-5.49,0.76-8.34
			c0.06-1.03,0.22-2.04,0.12-3.07c-0.09-0.96-0.28-1.87-0.23-2.83c0.02-0.44-0.07-3.83-0.56-3.64L60.62,8.65z"/>
		<path class="st17" d="M60.16,27.68c-0.36,1.47-2.41,0.43-3.29,0.18c-1.84-0.53-3.61-1.29-5.35-2.13c-1.43-0.69-2.84-1.39-4.26-2.1
			c-1-0.5-2.02-1.06-2.43-2.2c-0.18-0.49-0.18-0.8-0.07-1.3c0.06-0.25,0.36-0.85,0.16-1.1c-0.59-0.73-2.14,0.96-2.47,1.34
			c-0.47,0.54-1.87,1.53-1.62,2.33c0.19,0.6,0.83,0.74,1.31,0.97c0.77,0.36,1.55,0.69,2.32,1.06c2.22,1.08,4.57,1.9,6.84,2.82
			c1.94,0.78,3.98,1.25,5.9,2.05c0.72,0.3,2.28,1.13,3,0.52c0.83-0.7,0.09-2.02,0.12-2.92L60.16,27.68z"/>
		<path class="st18" d="M44.07,19.07c-0.36-0.25-1.8,1.42-2.15,1.78c-0.5,0.51-1.14,0.95-0.98,1.74c0.21,1.03,1.36,1.14,2.17,1.47
			c1.31,0.54,2.65,1.03,3.94,1.62c2.49,1.13,5.01,2.22,7.62,2.98c0.84,0.25,1.69,0.51,2.52,0.76c0.63,0.19,1.42,0.58,2.06,0.38
			c0.28-0.09,0.47-0.09,0.37-0.49c-0.11-0.41-0.3-0.19-0.67-0.18c-1.23,0.02-2.52-0.55-3.68-0.92c-2.7-0.86-5.28-2.02-7.88-3.21
			c-1.29-0.59-3.52-1.38-3.87-3.01c-0.11-0.53-0.09-2.63,0.65-2.57L44.07,19.07z"/>
		<path class="st18" d="M60.48,9.46c-0.22-0.32-0.66-0.03-0.84,0.2c-0.41,0.53,0.02,1.04,0.08,1.64c0.05,0.57-0.08,1.15-0.13,1.71
			c-0.07,0.75-0.04,1.5-0.08,2.25c-0.09,1.49,0.05,2.96,0.05,4.44c0,0.86,0.08,1.65,0.19,2.5c0.08,0.6,0.07,1.45,0.39,1.98
			c0.77-0.36,0.61-3.3,0.59-4.07c-0.05-1.59,0.07-3.15,0.08-4.74c0.01-1.28-0.1-2.56-0.02-3.84c0.05-0.78-0.17-1.52-0.3-2.19
			L60.48,9.46z"/>
		<path class="st19" d="M56.46,13.89c-1.09,0.14-2.28,1.09-3.18,1.66c-1.01,0.64-2.82,1.55-2.5,3.07c0.34,1.6,2.23,1.61,3.37,2.34
			c0.83,0.53,1.66,0.99,2.59,0.54c1.72-0.83,1.14-3.64,0.9-5.21c-0.06-0.43-0.68-3.09-1.53-2.45c0.05,0.11,0.09,0.01,0.17,0.03
			L56.46,13.89z"/>
		<path class="st17" d="M56.36,9.59c-1.62-3.68-5.04-7.24-8.78-8.57c-2.06-0.74-4.46-0.62-6.59-0.52c-0.48,0.02-3.01,0.12-3.01,0.82
			c0,0.51,1.31,0.5,1.59,0.55c1.38,0.27,2.59,0.87,3.77,1.67c1.1,0.75,1.73,1.82,2.75,2.65c1.02,0.84,1.31,1.83,1.69,3.08
			c0.56,1.86,1.58,4.52,3.94,4.11c1.28-0.22,2.35-1.19,3.21-2.13c0.27-0.29,0.47-0.65,0.72-0.95c0.21-0.25,0.52-0.41,0.67-0.69
			L56.36,9.59z"/>
		<path class="st17" d="M56.08,9.21c-0.58-1.2-1.13-2.4-1.96-3.45c-1.19-1.52-2.58-2.63-4.21-3.62c-1.39-0.84-3.21-1.33-4.79-1.49
			c-0.92-0.09-1.87-0.01-2.78,0.08c-0.84,0.08-1.68,0.01-2.43,0.43c0.78,0.5,1.93,0.62,2.81,0.97c1.6,0.63,3.07,1.36,4.54,2.28
			c1.98,1.25,3,3.36,4.5,5.1c0.89,1.03,1.86,1.75,3.14,1.2c0.4-0.17,1.82-1.35,1.29-1.84L56.08,9.21z"/>
		<path class="st18" d="M55.78,15.69c-1.16-0.37-2.82,0.75-2.95,1.95c-0.17,1.56,1.39,2.76,2.79,2.51c1.02-0.17,1.28-1.34,1.11-2.28
			c-0.18-0.99-0.77-1.35-1.37-1.66L55.78,15.69z"/>
		<path class="st18" d="M56.31,9.61c0.38-0.51-1.34-2.8-1.71-3.29c-1-1.32-2.39-2.77-3.76-3.68c-1.49-1-3.21-1.49-4.9-1.87
			c-1.49-0.33-3.69-0.79-5.05-0.01c0.17,0.3,0.79,0.34,1.1,0.41c0.87,0.21,1.73,0.43,2.57,0.73c1.35,0.48,2.72,0.94,3.86,1.87
			c1.54,1.27,2.78,2.63,3.82,4.35c0.51,0.85,1.43,2.45,2.55,2.42c0.72-0.02,1.58-0.56,1.28-1.39L56.31,9.61z"/>
		<path class="st18" d="M55.93,8.87c0.28-0.68-1.31-2.33-1.72-2.89c-0.72-0.96-1.64-1.75-2.52-2.54c-1.93-1.73-4.39-3.03-6.98-2.87
			c0,0.44,1.8,1.12,2.19,1.35c0.97,0.57,1.81,1.21,2.64,1.98c1.16,1.07,2.43,2.28,3.37,3.56c0.6,0.81,0.98,1.72,1.99,2.02
			c0.46,0.14,1.68-0.45,0.94-0.81L55.93,8.87z"/>
		<path class="st20" d="M43.47,13.73c-0.94-2.09-2.72-1.27-4.37-2.15c-1.37-0.73-2.52-1.22-4.06-1.22c-1.17,0-2.42,0.12-3.58,0.31
			c-2.05,0.33-4.31,1.03-6.03,2.24c-0.58,0.41-1.14,0.91-1.6,1.46c-0.32,0.39-0.51,0.86-0.95,1.12c0.32-2.53,1.8-5.29,3.71-6.83
			c1.5-1.21,3.01-2.37,4.47-3.61c1.08-0.91,2.47-1.8,3.9-1.87c1.37-0.07,2.67,0.83,3.71,1.71c1.46,1.22,2.77,2.58,3.75,4.19
			c0.89,1.46,0.96,3.11,1.13,4.69c-0.13-0.02-0.1-0.11-0.18-0.24L43.47,13.73z"/>
		<path class="st21" d="M29.77,5.7c0.83-0.02,1.53-0.64,2.38-0.52c0.37,0.05,0.62,0.23,1.01,0.2c0.42-0.04,0.82-0.26,1.25-0.34
			c1.66-0.28,3.15,0.6,4.51,1.5c1.32,0.88,2.45,2.11,3.32,3.45c0.34,0.53,0.64,1.1,0.9,1.67c0.23,0.51,0.29,1.1,0.55,1.57
			c-0.72-2.63-1.48-4.95-3.43-6.91c-1.77-1.78-4.24-3.77-6.83-3.03c-1.55,0.44-2.51,1.6-3.84,2.31c-0.04-0.08-0.02-0.16,0.05-0.22
			L29.77,5.7z"/>
	</g>
	<path class="st11" d="M75.57,48.26c-0.39,3-2.77,1.39-3.59-0.13c-0.99-1.84-1.49-3.54-3.88-3.77c-4.96-0.49-8.05,6.44-10.3,9.85
		c-1.6,2.42-3.31,5.05-5.18,7.27c-1.06,1.26-3.36,2.68-2.4,4.48c1.69,3.18,8.82,2.87,11.49,2.1c5.77-1.65,8.28-5.92,10.56-11.22
		c1.09-2.52,3.92-5.49,3.34-8.37L75.57,48.26z"/>
	<g>
		<g>
			<path class="st12" d="M88.15,42.98c-2.67-6.49-5.61-10.5-7.15-10.92c-1.41,0.8-3.69,1.92-5.92,3.03
				c0.77,1.59,1.15,3.33,1.29,5.11c0.51,2.64,0.56,5.42,0.14,7.99c0.47,2.73,0.47,5.97-2.19,7.01c0.53,0.17,1.07,0.4,1.54,0.5
				c1.66,0.36,3.41,0.6,5.14,0.57c3.13-0.05,7.85-0.72,8.57-4.25C89.98,49.97,88.92,44.84,88.15,42.98z"/>
			<path class="st12" d="M74.17,55.26c0.05-0.02,0.09-0.04,0.14-0.05c-0.45-0.14-0.89-0.24-1.27-0.17L74.17,55.26z"/>
			<path class="st13" d="M73.88,56.17c0.05-0.02,0.09-0.04,0.14-0.05c-0.45-0.14-0.89-0.24-1.27-0.17L73.88,56.17z"/>
			<path class="st13" d="M87.86,43.88c-2.67-6.49-5.62-10.5-7.15-10.92c-1.29,0.73-3.31,1.74-5.36,2.75
				c0.59,1.42,0.89,2.94,1.01,4.49c0.59,3.06,0.57,6.31-0.09,9.2c0.42,2.66,0.32,5.7-2.24,6.7c0.53,0.17,1.07,0.4,1.54,0.5
				c1.66,0.36,3.41,0.6,5.14,0.57c3.13-0.05,7.85-0.72,8.57-4.25C89.69,50.87,88.63,45.75,87.86,43.88z"/>
			<path class="st14" d="M74.51,72.4c-3.28-0.29-16.32-5.27-19.26-6.65c-1.65-0.78-1.47-1.56-0.39-2.97
				c1.49-1.95,10.61-13.9,11.56-14.98c0.68-0.78,1.51-1.74,2.5-1.32c0.85,0.37,1.5,2.07,1.88,2.84c2.01,4,3,9,3.75,13.4
				c0.4,2.31,0.92,4.52,1.19,6.85c0.11,0.97,0.29,4.23-1.53,2.82L74.51,72.4z"/>
			<path class="st14" d="M73.86,67.59c4.42,0.95,9.24-2.02,12.05-5.23c2.47-2.82,5.05-11.71,3.16-15.82c0.78,4.05-6.09,7.92-9.26,8
				c-3.26,0.08-6.59-0.23-9.5-1.62c1.28,2.76,1.59,5.43,2.07,8.42c0.34,2.09,1.55,4.59,1.78,6.27L73.86,67.59z"/>
			<path class="st15" d="M74.74,72.78c-3.25-0.24-16.13-4.94-19.03-6.25c-1.63-0.74-1.44-1.5-0.36-2.88
				c1.5-1.91,10.67-13.64,11.62-14.7c0.68-0.77,1.52-1.71,2.49-1.31c0.84,0.35,1.46,1.99,1.84,2.74c1.95,3.86,2.88,8.72,3.58,12.99
				c0.37,2.24,0.86,4.38,1.11,6.65c0.1,0.94,0.24,4.11-1.55,2.76L74.74,72.78z"/>
			<path class="st15" d="M74.15,68.11c4.37,0.88,9.19-2.07,12.01-5.23c2.48-2.77,5.13-11.44,3.3-15.42
				c0.73,3.93-6.13,7.77-9.27,7.88c-3.23,0.11-6.53-0.15-9.41-1.47c1.24,2.67,1.52,5.26,1.96,8.16c0.31,2.03,1.48,4.45,1.7,6.08
				L74.15,68.11z"/>
		</g>
		<path class="st16" d="M76.18,54.4c0.98-0.01,1.94,0.38,2.92,0.32c1.35-0.09,2.67-0.4,3.93-0.9c1.08-0.44,2.14-1.03,3.03-1.82
			c0.98-0.88,2.06-1.8,2.5-3.1c0.51-1.46,0.22-3.48-0.21-4.92c-0.36-1.22-0.81-2.49-1.35-3.63c-0.34-0.72-0.71-1.37-1.18-2.01
			c-0.22-0.31-0.67-1.14-1.07-1.12c0.06,1.36,0.32,2.68,0.49,4.02c0.1,0.83,0.06,1.28-0.53,1.85c-0.51,0.48-1.02,0.88-1.33,1.55
			c-0.45,0.99,0.02,2.05-0.29,3.07c-0.39,1.26-1.99,1.3-2.92,2.02c-0.7,0.53-0.74,1.36-1.22,2.03c-0.34,0.48-0.91,0.67-1.39,0.96
			c-0.64,0.4-1.14,0.93-1.54,1.55c0.08,0,0.17,0,0.25-0.02L76.18,54.4z"/>
		<path class="st16" d="M75.93,54.43c0.54-0.09,1.2,0.18,1.75,0.18c0.6,0,1.21,0.04,1.81-0.03c1.32-0.16,2.82-0.62,3.98-1.28
			c0.85-0.48,1.68-1.08,2.38-1.76c0.54-0.51,1.19-0.96,1.7-1.51c0.99-1.07,0.98-2.66,0.86-4.05c-0.18-2.04-1.15-4.3-2.07-6.1
			c-0.87-1.69-1.88-3.28-2.95-4.83c-0.54-0.79-1.52-1.98-2.55-1.95c-0.84,0.03-2.02,0.58-2.76,0.95c-0.48,0.24-0.71,0.74-1.21,0.9
			c-0.23,0.08-0.91-0.07-1.02,0.2c-0.17,0.42,1.36,2.29,1.55,2.63c0.65,1.2,0.96,2.24,1.08,3.6c0.11,1.29,0.2,2.46,0.84,3.61
			c0.56,1,1.08,1.9,0.97,3.09c-0.13,1.38-0.96,3.27-1.89,4.28c-0.52,0.56-1.56,1.46-2.33,1.62c0.11-0.03,0.19,0.02,0.29,0.02
			L75.93,54.43z"/>
		<path class="st17" d="M74.71,72.11c0.73-0.77-1.26-3.64-1.56-4.49c-0.26-0.76-0.37-1.6-0.56-2.38c-0.26-1.01-0.54-1.97-0.67-3.01
			c-0.23-1.85-0.18-4.34-2.02-5.38c-1.8-1.02-2.97,1.05-4.1,2.13c-1.54,1.47-3.79,1.8-5.65,2.68c-1.05,0.5-2.15,1.03-3,1.85
			c-1.84,1.77,1.32,2.73,2.57,3.26c0.87,0.37,1.69,0.84,2.56,1.2c0.96,0.39,1.98,0.57,2.93,0.98c1.64,0.72,3.36,1.28,5.01,1.92
			c0.99,0.38,1.97,0.85,2.97,1.18c0.26,0.09,1.92,0.48,1.49-0.24L74.71,72.11z"/>
		<path class="st17" d="M75.34,72.41c0.35-0.97,0.26-2.71-0.31-3.63c0.24,3.15-4.4-0.38-5.3-0.79c-1.62-0.73-3.28-1.12-4.97-1.62
			C64,66.14,63.25,66,62.49,65.82c-0.33-0.08-0.84-0.16-1-0.47c0.65-0.32,3.86-2.17,2.51-3.04c-0.49-0.32-1.54-0.07-2.07,0
			c-0.88,0.13-1.78,0.24-2.66,0.37c-0.78,0.12-2.58,0.56-2.34,1.65c0.19,0.88,1.37,1.66,2.08,2.1c2.37,1.48,4.83,2.38,7.4,3.46
			c0.92,0.39,1.79,0.89,2.77,1.13c0.91,0.22,1.79,0.33,2.66,0.7c0.39,0.17,3.52,1.18,3.5,0.64L75.34,72.41z"/>
		<path class="st17" d="M58.07,65.75c-1.23-0.83,0.35-2.51,0.86-3.29c1.06-1.63,2.3-3.12,3.61-4.55c1.08-1.18,2.16-2.34,3.25-3.49
			c0.77-0.81,1.6-1.64,2.77-1.67c0.51-0.01,0.79,0.08,1.21,0.35c0.21,0.14,0.67,0.63,0.96,0.51c0.85-0.34-0.21-2.42-0.46-2.86
			c-0.35-0.64-0.81-2.33-1.63-2.35c-0.61-0.01-0.93,0.57-1.29,0.97c-0.57,0.64-1.11,1.3-1.69,1.93c-1.68,1.82-3.16,3.87-4.71,5.8
			c-1.32,1.65-2.38,3.49-3.71,5.12c-0.5,0.61-1.75,1.87-1.42,2.78c0.38,1.04,1.82,0.74,2.63,1.07L58.07,65.75z"/>
		<path class="st18" d="M70.97,52.76c0.35-0.27-0.74-2.23-0.96-2.69c-0.31-0.66-0.51-1.43-1.29-1.53c-1.01-0.13-1.46,0.96-2.02,1.65
			c-0.9,1.11-1.77,2.26-2.71,3.34c-1.8,2.07-3.59,4.2-5.1,6.51c-0.48,0.74-0.99,1.49-1.48,2.23c-0.37,0.55-0.97,1.21-0.98,1.9
			c-0.01,0.3-0.06,0.49,0.34,0.52c0.4,0.03,0.27-0.23,0.37-0.59c0.36-1.21,1.29-2.29,1.99-3.31c1.63-2.37,3.49-4.53,5.39-6.69
			c0.94-1.07,2.36-3.01,3.96-2.82c0.52,0.06,2.44,0.77,2.15,1.47L70.97,52.76z"/>
		<path class="st18" d="M74.65,72.01c0.36-0.11,0.23-0.64,0.08-0.89c-0.36-0.58-0.96-0.32-1.53-0.46c-0.54-0.14-1.03-0.45-1.53-0.68
			c-0.66-0.31-1.36-0.52-2.04-0.81c-1.34-0.57-2.72-0.92-4.08-1.41c-0.79-0.28-1.53-0.46-2.35-0.63c-0.57-0.12-1.35-0.4-1.93-0.26
			c0.09,0.87,2.83,1.67,3.55,1.9c1.47,0.47,2.87,1.09,4.31,1.62c1.17,0.43,2.38,0.74,3.52,1.23c0.7,0.3,1.44,0.33,2.1,0.42
			L74.65,72.01z"/>
		<path class="st19" d="M71.84,66.62c0.21-1.11-0.28-2.59-0.52-3.67c-0.27-1.2-0.54-3.27-2.03-3.46c-1.57-0.19-2.17,1.67-3.19,2.54
			c-0.74,0.64-1.42,1.31-1.3,2.36c0.23,1.96,2.98,2.31,4.49,2.59c0.41,0.08,3.04,0.34,2.72-0.7c-0.12,0.02-0.04,0.08-0.08,0.16
			L71.84,66.62z"/>
		<path class="st17" d="M75.81,67.92c3.87-0.4,8.2-2.59,10.58-5.82c1.32-1.78,1.96-4.18,2.53-6.3c0.13-0.48,0.83-3,0.18-3.22
			c-0.46-0.16-0.87,1.12-1,1.38c-0.67,1.27-1.6,2.26-2.7,3.16c-1.02,0.84-2.21,1.11-3.28,1.83c-1.09,0.73-2.08,0.69-3.34,0.65
			c-1.87-0.06-4.63,0.08-4.99,2.53c-0.2,1.32,0.36,2.7,0.95,3.84c0.19,0.36,0.45,0.67,0.65,1.02c0.17,0.29,0.21,0.64,0.42,0.89
			L75.81,67.92z"/>
		<path class="st17" d="M76.25,67.77c1.28-0.17,2.54-0.33,3.77-0.8c1.76-0.67,3.21-1.67,4.62-2.95c1.2-1.09,2.22-2.71,2.86-4.22
			c0.37-0.87,0.59-1.83,0.79-2.75c0.19-0.85,0.51-1.65,0.37-2.53c-0.71,0.6-1.18,1.7-1.76,2.45c-1.07,1.36-2.2,2.57-3.5,3.71
			c-1.76,1.53-4.01,1.85-6.07,2.76c-1.22,0.54-2.18,1.25-2.08,2.69c0.03,0.45,0.67,2.22,1.28,1.87L76.25,67.77z"/>
		<path class="st18" d="M70.41,65.37c0.7-1.01,0.19-3.01-0.87-3.53c-1.38-0.68-2.95,0.46-3.17,1.92c-0.16,1.05,0.83,1.69,1.74,1.84
			c0.96,0.15,1.47-0.32,1.94-0.81L70.41,65.37z"/>
		<path class="st18" d="M75.8,67.87c0.35,0.53,2.98-0.4,3.55-0.61c1.52-0.55,3.28-1.45,4.53-2.49c1.37-1.14,2.36-2.66,3.24-4.2
			c0.77-1.35,1.87-3.37,1.58-4.96c-0.33,0.07-0.56,0.66-0.72,0.94c-0.46,0.78-0.93,1.55-1.47,2.29c-0.86,1.17-1.71,2.37-2.91,3.17
			c-1.64,1.1-3.28,1.88-5.17,2.34c-0.93,0.23-2.69,0.61-3.01,1.71c-0.21,0.72,0.02,1.74,0.88,1.71L75.8,67.87z"/>
		<path class="st18" d="M76.6,67.73c0.53,0.49,2.54-0.52,3.18-0.75c1.1-0.39,2.12-1.04,3.11-1.65c2.19-1.33,4.14-3.32,4.8-5.92
			c-0.41-0.14-1.59,1.4-1.92,1.71c-0.82,0.76-1.67,1.38-2.63,1.95c-1.34,0.79-2.85,1.64-4.31,2.15c-0.93,0.32-1.88,0.4-2.47,1.3
			c-0.27,0.4-0.11,1.8,0.45,1.19L76.6,67.73z"/>
		<path class="st20" d="M76.04,53.91c2.2-0.24,2.01-2.26,3.33-3.59c1.09-1.11,1.9-2.07,2.38-3.59c0.36-1.15,0.64-2.42,0.83-3.61
			c0.34-2.12,0.4-4.57-0.17-6.65c-0.19-0.71-0.48-1.42-0.84-2.05c-0.25-0.44-0.63-0.78-0.73-1.3c2.22,1.14,4.28,3.49,5.1,5.86
			c0.64,1.87,1.23,3.73,1.91,5.57c0.5,1.35,0.88,3.01,0.49,4.44c-0.37,1.37-1.59,2.35-2.71,3.09c-1.57,1.04-3.22,1.88-5,2.32
			c-1.61,0.4-3.14-0.07-4.64-0.42c0.06-0.12,0.13-0.07,0.27-0.1L76.04,53.91z"/>
		<path class="st21" d="M87.65,43.09c-0.24,0.82,0.11,1.71-0.27,2.51c-0.16,0.35-0.41,0.53-0.5,0.92c-0.1,0.43-0.02,0.89-0.08,1.34
			c-0.26,1.72-1.53,2.89-2.78,3.93c-1.22,1.01-2.69,1.72-4.19,2.14c-0.59,0.16-1.2,0.27-1.81,0.34c-0.54,0.06-1.1-0.07-1.61,0.03
			c2.63,0.15,4.99,0.16,7.39-1.12c2.18-1.16,4.77-2.94,4.9-5.72c0.08-1.66-0.68-2.99-0.91-4.52c0.09-0.01,0.15,0.03,0.19,0.12
			L87.65,43.09z"/>
	</g>
</g>
</svg>
